<svg xmlns="http://www.w3.org/2000/svg" viewBox="0 0 490 490"><path d="m439.8 231.6c-12.7-7.6-23 0-27.1 5.2-42.8 52.2-147.1 57.4-189.9 57.4h-5.2v-44.9c0-20-21.9-25.9-33.4-15.6l-128.3 109.3c-9.8 8.3-9.8 23.3-0.1 31.7 39.5 33.9 128.4 110.5 128.4 110.5 9.1 9.1 33.4 6.2 33.4-15.6v-41.7l0.1-0.1c42.9 1.2 166.5-10.6 230.5-171 4.1-9.5 0.1-20.1-8.4-25.2zm-218 154.4c-12.5 0-20.9-1-20.9-1-12.5-2.5-24 7.1-24 19.8v19.8l-77.2-65.7 77.2-65.7v19.8c0 11.5 8.3 19.8 18.8 20.9 1 0 10.4 1 27.1 1 38.6 0 98.1-4.2 147.1-25-49 64.7-110.6 76.1-148.1 76.1z"/><path d="m77.3 253.2c42.8-52.2 147.1-57.4 189.9-57.4h5.2v44.9c0 20 21.9 25.9 33.4 15.6l128.3-109.2c9.8-8.3 9.8-23.3 0.1-31.7-39.5-34-128.5-110.5-128.5-110.5-9.1-9.1-33.4-6.2-33.4 15.6v41.7l-0.1 0.1c-42.9-1.1-166.5 10.7-230.4 171.1-4.2 9.4-0.1 20 8.3 25 12.7 7.6 23 0 27.2-5.2zm190.9-149.2c12.5 0 20.9 1 20.9 1 12.5 2.5 24-7.1 24-19.8v-19.8l77.2 65.7-77.2 65.7v-19.8c0-11.5-8.3-19.8-18.8-20.9-1 0-10.4-1-27.1-1-38.6 0-98.1 4.2-147.1 25 49-64.6 110.5-76.1 148.1-76.1z"/></svg>