<svg xmlns="http://www.w3.org/2000/svg" viewBox="0 0 423.8 423.8"><path d="M43.8 281.5c-18.6-44.9-18.6-94.3 0-139.2 10.6-25.7 26.7-48.2 46.9-66.1l60.9 60.9V15.1H29.6l39.9 39.9c-64.3 58.4-88.5 153.2-53.4 238 14.2 34.2 37.1 64.2 66.2 86.6 28.3 21.8 61.9 36.2 97.2 41.7l4.6-29.6C120.8 381.8 68.3 340.6 43.8 281.5z"/><path d="M407.5 292.9c21.7-52.3 21.7-109.8 0-162.1 -14.2-34.2-37.1-64.2-66.2-86.6C313 22.4 279.4 8 244.1 2.5l-4.6 29.6c63.3 9.8 115.8 51 140.3 110.1 18.6 44.9 18.6 94.3 0 139.2 -10.6 25.7-26.7 48.2-46.9 66.1l-60.9-60.9v121.9h121.9l-39.8-39.8C377.1 348.1 395.3 322.3 407.5 292.9z"/></svg>