<?xml version="1.0" ?><!DOCTYPE svg  PUBLIC '-//W3C//DTD SVG 1.1//EN'  'http://www.w3.org/Graphics/SVG/1.1/DTD/svg11.dtd'><svg enable-background="new 0 0 512 512" height="512px" id="Layer_1" version="1.1" viewBox="0 0 512 512" width="512px" xml:space="preserve" xmlns="http://www.w3.org/2000/svg" xmlns:xlink="http://www.w3.org/1999/xlink"><path d="M255.997,67.839c-103.754,0-188.161,84.413-188.161,188.167s84.407,188.155,188.161,188.155  c103.76,0,188.167-84.401,188.167-188.155S359.757,67.839,255.997,67.839z M255.997,414.481  c-87.383,0-158.476-71.093-158.476-158.476c0-87.395,71.092-158.487,158.476-158.487c87.389,0,158.487,71.093,158.487,158.487  C414.485,343.388,343.386,414.481,255.997,414.481z"/><path d="M281.016,174.529c14.806,0,18.867,10.739,22.929,23.522l13.938-17.707c-4.645-18.587-17.422-29.611-42.967-29.611  c-43.845,0-49.066,31.931-49.066,59.794v30.205H204.36l-5.803,24.391h25.835c-3.193,32.811-11.612,63.575-34.261,90.582h125.146  V325.51H244.71c9.002-20.621,12.498-38.614,13.948-60.389h48.479l5.81-24.391h-53.134v-24.391  C259.813,193.698,260.979,174.529,281.016,174.529z"/></svg>