<svg xmlns="http://www.w3.org/2000/svg" height="512" viewBox="0 0 512 512" width="512"><path d="m288.1 128.5h-80.3c-8.3 0-15 6.7-15 15v113.5h-17.1c-8.3 0-15 6.7-15 15s6.7 15 15 15h17.1v34.3h-17.1c-8.3 0-15 6.7-15 15s6.7 15 15 15h17.1v33.2c0 8.3 6.7 15 15 15s15-6.7 15-15v-33.2h65.3c8.3 0 15-6.7 15-15s-6.7-15-15-15h-65.3v-34.3h65.3c43.7 0 79.3-35.6 79.3-79.3 0-44.8-36.5-79.3-79.3-79.3zm0 128.5h-65.3v-98.5h65.3c27 0 49.3 21.8 49.3 49.3 0 27.2-22.1 49.3-49.3 49.3z"/><path d="m256 0c-141.2 0-256 114.8-256 256s114.8 256 256 256 256-114.8 256-256-114.8-256-256-256zm0 482c-124.6 0-226-101.4-226-226s101.4-226 226-226 226 101.4 226 226-101.4 226-226 226z"/></svg>